<svg xmlns="http://www.w3.org/2000/svg" width="900" height="463" viewBox="0 0 900 463" role="img" aria-labelledby="title desc">
<title id="title">Variação em 7 dias: Investimentos EA FC: Alemaes em 20/07 — PC</title>
<desc id="desc">Gráfico gerado a partir da tabela publicada neste artigo.</desc>
<rect width="100%" height="100%" rx="20" fill="#0f172a"/>
<text x="28" y="42" fill="#f8fafc" font-family="system-ui,sans-serif" font-size="23" font-weight="700">Variação em 7 dias</text>
<text x="28" y="70" fill="#94a3b8" font-family="system-ui,sans-serif" font-size="15">Dados do recorte publicado no artigo</text>
<text x="28" y="117" fill="#e2e8f0" font-family="system-ui,sans-serif" font-size="16">Simone Laudehr</text>
<rect x="285" y="95" width="480" height="28" rx="7" fill="#22c55e"/>
<text x="775" y="116" fill="#f8fafc" font-family="system-ui,sans-serif" font-size="15" font-weight="700">+84.5%</text>
<text x="28" y="175" fill="#e2e8f0" font-family="system-ui,sans-serif" font-size="16">Carolin Simon</text>
<rect x="285" y="153" width="442" height="28" rx="7" fill="#22c55e"/>
<text x="737" y="174" fill="#f8fafc" font-family="system-ui,sans-serif" font-size="15" font-weight="700">+77.8%</text>
<text x="28" y="233" fill="#e2e8f0" font-family="system-ui,sans-serif" font-size="16">Oliver Kahn</text>
<rect x="285" y="211" width="425" height="28" rx="7" fill="#22c55e"/>
<text x="720" y="232" fill="#f8fafc" font-family="system-ui,sans-serif" font-size="15" font-weight="700">+74.9%</text>
<text x="28" y="291" fill="#e2e8f0" font-family="system-ui,sans-serif" font-size="16">Oliver Bierhoff</text>
<rect x="285" y="269" width="406" height="28" rx="7" fill="#22c55e"/>
<text x="701" y="290" fill="#f8fafc" font-family="system-ui,sans-serif" font-size="15" font-weight="700">+71.4%</text>
<text x="28" y="349" fill="#e2e8f0" font-family="system-ui,sans-serif" font-size="16">Lewis Holtby</text>
<rect x="285" y="327" width="257" height="28" rx="7" fill="#22c55e"/>
<text x="552" y="348" fill="#f8fafc" font-family="system-ui,sans-serif" font-size="15" font-weight="700">+45.2%</text>
<text x="28" y="407" fill="#e2e8f0" font-family="system-ui,sans-serif" font-size="16">Nadine Keßler</text>
<rect x="285" y="385" width="255" height="28" rx="7" fill="#22c55e"/>
<text x="550" y="406" fill="#f8fafc" font-family="system-ui,sans-serif" font-size="15" font-weight="700">+44.9%</text>
</svg>
